# xmcd
# 
# Track frame offsets:
#     150
#     22207
#     48037
#     74057
#     93210
#     114062
#     143325
#     167392
#     182832
#     216267
#     247277
# 
# Disc length: 3534
# 
# Revision: 4
# Processed by: cddbd v1.5.2PL0 Copyright (c) Steve Scherf et al.
# Submitted via: fre:ac v1.1beta1
# 
DISCID=940dcc0b
DTITLE=矢野沙織 - YANO SAORI
DYEAR=2003
DGENRE=J-Jazz
TTITLE0=Confirmation (Charlie Parker)
TTITLE1=Blue Bossa (Kenny Dorham)
TTITLE2=When You're Smiling (Mark Fisher,Joe Goodwin and Larry Shay)
TTITLE3=How To Make A Pearl (Saori Yano)
TTITLE4=My Little Suede Shoes (Charlie Parker)
TTITLE5=Black Orpheus (Luiz Bonfa)
TTITLE6=Bohemia After Dark (Oscar Pettiford)
TTITLE7=Mamaduke (Charlie Parker)
TTITLE8=Hoyden (Saori Yano)
TTITLE9=In A Sentimental Mood (Duke Ellington)
TTITLE10=It Could Happend To You (Johnny Brurke and Jimmy Van Heusen)
EXTD=YEAR: 2003
EXTT0=
EXTT1=
EXTT2=
EXTT3=
EXTT4=
EXTT5=
EXTT6=
EXTT7=
EXTT8=
EXTT9=
EXTT10=
PLAYORDER=
